<svg width="116" height="31" viewBox="0 0 116 31" fill="none" xmlns="http://www.w3.org/2000/svg">
<path d="M63.4666 12.1295V30.6355H61.0014V23.6321C59.8722 25.0887 58.1755 25.8302 56.2511 25.8302C52.2724 25.8302 49.3696 23.0701 49.3696 18.9033C49.3696 14.7366 52.2724 12.0029 56.2511 12.0029C58.2553 12.0029 59.9993 12.771 61.1048 14.2776V12.1295H63.4666ZM61.028 18.9033C61.028 16.0402 59.0504 14.1481 56.458 14.1481C53.8657 14.1481 51.8615 16.0402 51.8615 18.9033C51.8615 21.7665 53.8391 23.6851 56.458 23.6851C59.077 23.6851 61.028 21.793 61.028 18.9033Z" fill="#282828"/>
<path d="M68.4976 7.93627C68.4976 7.04171 69.2159 6.32666 70.1677 6.32666C71.1195 6.32666 71.8378 7.01817 71.8378 7.88624C71.8378 8.80728 71.1431 9.52233 70.1677 9.52233C69.1922 9.52233 68.4976 8.83082 68.4976 7.93627ZM68.935 12.1295H71.4003V25.6773H68.935V12.1295Z" fill="#282828"/>
<path d="M76.8955 21.69V6.70923H79.3608V21.4841C79.3608 22.9407 80.0555 23.7587 81.4655 23.7587C81.9266 23.7587 82.3907 23.6322 82.6715 23.5027L82.7986 25.5213C82.234 25.7273 81.6162 25.8274 81.028 25.8274C78.3824 25.8274 76.8926 24.2943 76.8926 21.6871L76.8955 21.69Z" fill="#282828"/>
<path d="M95.7423 22.049L97.0784 23.635C95.8724 25.0652 93.9983 25.8332 91.7369 25.8332C87.3473 25.8332 84.418 22.9435 84.418 18.9063C84.418 14.869 87.2941 12.0059 91.2492 12.0059C94.9737 12.0059 97.8735 14.613 97.9504 18.6532L87.1404 20.7483C87.8351 22.614 89.5288 23.688 91.8138 23.688C93.4071 23.688 94.7402 23.1525 95.7423 22.0519V22.049ZM86.8064 18.7768V19.0328L95.5117 17.3967C95.0742 15.4546 93.4573 14.0745 91.2492 14.0745C88.6568 14.0745 86.8064 15.9401 86.8064 18.7768Z" fill="#282828"/>
<path d="M115.024 12.1295V25.6772H112.662V23.5291C111.557 25.0622 109.813 25.8302 107.809 25.8302C103.83 25.8302 100.927 23.0436 100.927 18.9033C100.927 14.7631 103.83 12.0029 107.809 12.0029C109.736 12.0029 111.43 12.718 112.559 14.1746V12.1295H115.024ZM112.586 18.9033C112.586 16.0137 110.608 14.1481 108.016 14.1481C105.423 14.1481 103.419 16.0137 103.419 18.9033C103.419 21.793 105.397 23.6851 108.016 23.6851C110.635 23.6851 112.586 21.793 112.586 18.9033Z" fill="#282828"/>
<path d="M46.494 12.1295V25.6772H44.1322V23.5291C43.0266 25.0622 41.2826 25.8302 39.2785 25.8302C35.2997 25.8302 32.397 23.0436 32.397 18.9033C32.397 14.7631 35.2997 12.0029 39.2785 12.0029C41.2058 12.0029 42.8995 12.718 44.0287 14.1746V12.1295H46.494ZM44.0553 18.9033C44.0553 16.0137 42.0778 14.1481 39.4854 14.1481C36.893 14.1481 34.8889 16.0137 34.8889 18.9033C34.8889 21.793 36.8664 23.6851 39.4854 23.6851C42.1044 23.6851 44.0553 21.793 44.0553 18.9033Z" fill="#282828"/>
<path d="M12.2852 29.7864C11.2173 29.7864 10.1932 29.4148 9.30058 28.6876C7.31614 27.0653 6.75428 24.4241 7.75447 21.4312C9.11329 17.3795 13.1101 13.0281 17.9875 10.8384C17.6966 8.53684 17.0511 6.42307 15.8716 5.12044C14.9152 4.06556 13.7078 3.66997 12.074 3.88175C8.87022 4.29731 4.6463 10.6626 3.28349 27.2371C3.21974 28.0323 3.18387 28.8354 3.18387 29.6266H0C0 28.7475 0.0358634 27.8564 0.10759 26.9734C0.729223 19.4493 3.09222 1.81993 11.6676 0.713095C14.3135 0.373453 16.5809 1.15263 18.2306 2.97471C19.6531 4.54505 20.5976 6.83064 21.0558 9.79151C21.9803 9.57574 22.9207 9.44388 23.8651 9.40792H23.9209H24.9291V12.6045H23.9488C23.0841 12.6365 22.2114 12.7844 21.3507 13.0201C21.4662 16.1648 21.1036 19.0777 20.7051 20.8319C20.0516 23.7088 17.326 28.324 13.911 29.5027C13.3651 29.6905 12.8192 29.7864 12.2812 29.7864H12.2852ZM18.1867 14.3347C14.6801 16.2687 11.7672 19.5093 10.775 22.4541C10.3765 23.6409 10.1454 25.2592 11.3129 26.2102C11.803 26.6098 12.2693 26.6937 12.875 26.4819C14.8475 25.8026 17.071 22.4462 17.601 20.1246C17.9277 18.6941 18.1748 16.5764 18.1867 14.3347Z" fill="#F58C76"/>
</svg>
