<svg width="135" height="31" xmlns="http://www.w3.org/2000/svg"><g fill="none" fill-rule="evenodd"><path fill="#0A0B09" d="M41.18 21.667V8.469h3.512l4.45 9.862 4.383-9.862h3.365v13.198h-2.896v-7.678l-3.342 7.678h-3.086L44.18 14.03v7.636h-3m27.364-5.109l-2.423-5.595-2.368 5.595h4.791zm-6.957 5.11h-3.405l5.854-13.198h4.193l5.896 13.198h-3.362l-1.16-2.63h-6.891l-1.125 2.63zm13.896 0V8.469h12.6v2.639h-9.557v2.621h8.195v2.576h-8.195v2.722h9.58v2.64H75.484m18.16-7.138h6.621v-3.421h-6.62v3.42zm-3.086 7.138V8.469h10.545c1.408 0 2.226.815 2.226 2.213v4.434c0 1.02-.903 1.942-2.654 1.942-.1.005-.2 0-.305 0l3.07 4.609h-3.388l-2.91-4.513h-3.498v4.513h-3.086zm18.324.007h-1.045c-1.364 0-2.02-.788-2.02-1.936v-1.724h3.065v1.021h6.513v-2.701h-7.471c-1.193 0-2.052-.802-2.052-1.915V10.5c0-1.186.935-2.024 2.073-2.024h8.54c1.155 0 1.954.862 1.954 2.107v1.575h-3.044v-1.043h-6.513v2.6h7.45c1.1 0 2.107.727 2.107 2.128v3.767c0 1.283-.712 2.063-2.043 2.063h-7.514m12.498.001V8.475h3.13v5.28l5.959-5.28h4.236l-7.11 6.131 7.366 7.068h-4.386l-6.066-6.003v6.003h-3.129"/><path d="M28.554 26.63a3.415 3.415 0 0 1-3.415 3.416H3.581a3.416 3.416 0 0 1-3.416-3.415V3.503A3.416 3.416 0 0 1 3.581.087H25.14a3.416 3.416 0 0 1 3.415 3.416v23.128" fill="#42B0D5"/><path fill="#FFFFFE" d="M18.886 14.29l5.602-7.026-.018-.023-8.096 3.9-2-8.762h-.028l-2 8.761L4.25 7.241l-.018.023 5.603 7.025-8.097 3.9.007.027h8.986l-2 8.761.026.012 5.603-7.026 5.603 7.026.025-.013-1.999-8.76h8.986l.007-.028-8.096-3.899"/></g></svg>